<svg width="1200" height="800" viewBox="0 0 1200 800" xmlns="http://www.w3.org/2000/svg">
  <!-- 배경 -->
  <rect width="1200" height="800" fill="#f8f9fa"/>
  
  <!-- 창문 프레임 -->
  <rect x="200" y="100" width="800" height="600" fill="#e9ecef" stroke="#dee2e6" stroke-width="4"/>
  <rect x="220" y="120" width="760" height="560" fill="#ffffff"/>
  
  <!-- 블라인드 슬랫들 -->
  <g id="blinds">
    <!-- 상단 블라인드 -->
    <rect x="240" y="140" width="720" height="8" fill="#ffffff" stroke="#dee2e6" stroke-width="1"/>
    <rect x="240" y="156" width="720" height="8" fill="#ffffff" stroke="#dee2e6" stroke-width="1"/>
    <rect x="240" y="172" width="720" height="8" fill="#ffffff" stroke="#dee2e6" stroke-width="1"/>
    <rect x="240" y="188" width="720" height="8" fill="#ffffff" stroke="#dee2e6" stroke-width="1"/>
    <rect x="240" y="204" width="720" height="8" fill="#ffffff" stroke="#dee2e6" stroke-width="1"/>
    <rect x="240" y="220" width="720" height="8" fill="#ffffff" stroke="#dee2e6" stroke-width="1"/>
    <rect x="240" y="236" width="720" height="8" fill="#ffffff" stroke="#dee2e6" stroke-width="1"/>
    <rect x="240" y="252" width="720" height="8" fill="#ffffff" stroke="#dee2e6" stroke-width="1"/>
    <rect x="240" y="268" width="720" height="8" fill="#ffffff" stroke="#dee2e6" stroke-width="1"/>
    <rect x="240" y="284" width="720" height="8" fill="#ffffff" stroke="#dee2e6" stroke-width="1"/>
    
    <!-- 중간 블라인드 (비스듬히) -->
    <rect x="240" y="300" width="720" height="8" fill="#ffffff" stroke="#dee2e6" stroke-width="1" transform="rotate(15 600 304)"/>
    <rect x="240" y="316" width="720" height="8" fill="#ffffff" stroke="#dee2e6" stroke-width="1" transform="rotate(15 600 320)"/>
    <rect x="240" y="332" width="720" height="8" fill="#ffffff" stroke="#dee2e6" stroke-width="1" transform="rotate(15 600 336)"/>
    <rect x="240" y="348" width="720" height="8" fill="#ffffff" stroke="#dee2e6" stroke-width="1" transform="rotate(15 600 352)"/>
    <rect x="240" y="364" width="720" height="8" fill="#ffffff" stroke="#dee2e6" stroke-width="1" transform="rotate(15 600 368)"/>
    
    <!-- 하단 블라인드 -->
    <rect x="240" y="380" width="720" height="8" fill="#ffffff" stroke="#dee2e6" stroke-width="1"/>
    <rect x="240" y="396" width="720" height="8" fill="#ffffff" stroke="#dee2e6" stroke-width="1"/>
    <rect x="240" y="412" width="720" height="8" fill="#ffffff" stroke="#dee2e6" stroke-width="1"/>
    <rect x="240" y="428" width="720" height="8" fill="#ffffff" stroke="#dee2e6" stroke-width="1"/>
    <rect x="240" y="444" width="720" height="8" fill="#ffffff" stroke="#dee2e6" stroke-width="1"/>
    <rect x="240" y="460" width="720" height="8" fill="#ffffff" stroke="#dee2e6" stroke-width="1"/>
    <rect x="240" y="476" width="720" height="8" fill="#ffffff" stroke="#dee2e6" stroke-width="1"/>
    <rect x="240" y="492" width="720" height="8" fill="#ffffff" stroke="#dee2e6" stroke-width="1"/>
    <rect x="240" y="508" width="720" height="8" fill="#ffffff" stroke="#dee2e6" stroke-width="1"/>
    <rect x="240" y="524" width="720" height="8" fill="#ffffff" stroke="#dee2e6" stroke-width="1"/>
    <rect x="240" y="540" width="720" height="8" fill="#ffffff" stroke="#dee2e6" stroke-width="1"/>
    <rect x="240" y="556" width="720" height="8" fill="#ffffff" stroke="#dee2e6" stroke-width="1"/>
    <rect x="240" y="572" width="720" height="8" fill="#ffffff" stroke="#dee2e6" stroke-width="1"/>
    <rect x="240" y="588" width="720" height="8" fill="#ffffff" stroke="#dee2e6" stroke-width="1"/>
    <rect x="240" y="604" width="720" height="8" fill="#ffffff" stroke="#dee2e6" stroke-width="1"/>
    <rect x="240" y="620" width="720" height="8" fill="#ffffff" stroke="#dee2e6" stroke-width="1"/>
    <rect x="240" y="636" width="720" height="8" fill="#ffffff" stroke="#dee2e6" stroke-width="1"/>
  </g>
  
  <!-- 작동 줄들 -->
  <line x1="900" y1="140" x2="900" y2="650" stroke="#6c757d" stroke-width="2"/>
  <line x1="920" y1="140" x2="920" y2="650" stroke="#6c757d" stroke-width="2"/>
  <line x1="940" y1="140" x2="940" y2="650" stroke="#6c757d" stroke-width="2"/>
  <line x1="960" y1="140" x2="960" y2="650" stroke="#6c757d" stroke-width="2"/>
  <line x1="980" y1="140" x2="980" y2="650" stroke="#6c757d" stroke-width="2"/>
  
  <!-- 블라인드 상단 바 -->
  <rect x="240" y="120" width="720" height="20" fill="#f8f9fa" stroke="#dee2e6" stroke-width="1"/>
  
  <!-- 창문 밖 풍경 (어둡게) -->
  <rect x="240" y="140" width="720" height="560" fill="#343a40" opacity="0.3"/>
  
  <!-- 조명 효과 -->
  <defs>
    <radialGradient id="light" cx="0.5" cy="0.5" r="0.5">
      <stop offset="0%" stop-color="#ffffff" stop-opacity="0.1"/>
      <stop offset="100%" stop-color="#ffffff" stop-opacity="0"/>
    </radialGradient>
  </defs>
  <circle cx="600" cy="400" r="300" fill="url(#light)"/>
</svg>
